<svg width="32" height="32" viewBox="0 0 32 32" fill="none" xmlns="http://www.w3.org/2000/svg">
<path d="M14 31H8V12H3L11 2L19 12H14L13.999 15" stroke="#52A999" stroke-width="2" stroke-miterlimit="10" stroke-linecap="square"/>
<path d="M18.5 22C19.8807 22 21 20.8807 21 19.5C21 18.1193 19.8807 17 18.5 17C17.1193 17 16 18.1193 16 19.5C16 20.8807 17.1193 22 18.5 22Z" stroke="#52A999" stroke-width="2" stroke-miterlimit="10" stroke-linecap="square"/>
<path d="M27.5 31C28.8807 31 30 29.8807 30 28.5C30 27.1193 28.8807 26 27.5 26C26.1193 26 25 27.1193 25 28.5C25 29.8807 26.1193 31 27.5 31Z" stroke="#52A999" stroke-width="2" stroke-miterlimit="10" stroke-linecap="square"/>
<path d="M18 30L28 18" stroke="#52A999" stroke-width="2" stroke-miterlimit="10" stroke-linecap="square"/>
</svg>
