<svg width="32" height="32" viewBox="0 0 32 32" fill="none" xmlns="http://www.w3.org/2000/svg">
<path d="M30.2742 20.7906C30.2008 20.484 30.0596 20.1978 29.861 19.953C29.6624 19.7082 29.4115 19.5111 29.1266 19.3761C28.0501 18.8379 26.7201 19.3138 25.6526 19.6919C25.0743 19.8876 24.4916 20.11 23.9312 20.3502C23.6901 20.4491 23.4948 20.6348 23.384 20.8707C23.327 20.9877 23.2943 21.1151 23.2882 21.2451C23.2821 21.3751 23.3026 21.505 23.3484 21.6269C23.446 21.8691 23.6328 22.0647 23.8704 22.1731C24.108 22.2816 24.3781 22.2946 24.6251 22.2096C24.8786 22.1162 25.1188 22.0183 25.3457 21.9293C25.7015 21.7914 26.0351 21.658 26.3243 21.5601L26.6846 21.4534C27.3206 21.2532 28.0412 21.0308 28.3749 21.1598C28.3749 21.1598 28.446 21.2132 28.4861 21.3822C28.7574 22.0583 27.9923 22.641 27.9968 22.641C27.5964 22.8412 19.7099 27.5651 18.2642 28.5304C17.2812 29.2821 15.7288 28.9085 15.7154 28.9085L3.44297 25.6747V20.5904H17.3879C18.2776 20.5904 18.8514 20.7773 18.8514 21.0753C18.8509 21.2877 18.7854 21.4949 18.6638 21.669C18.5421 21.8432 18.3701 21.9759 18.1708 22.0494L12.9487 22.3786C12.6954 22.421 12.4668 22.556 12.3074 22.7574C12.148 22.9587 12.069 23.2121 12.0857 23.4684C12.1275 23.7217 12.2595 23.9512 12.4574 24.1148C12.6553 24.2783 12.9056 24.3647 13.1622 24.358L18.4466 23.8687H18.6601C19.2816 23.694 19.8288 23.3207 20.2183 22.8059C20.6078 22.2911 20.8182 21.663 20.8174 21.0175C20.8174 20.4392 20.5684 18.5665 17.3879 18.5665H2.54443C2.41366 18.5602 2.28302 18.5813 2.16087 18.6284C2.03872 18.6756 1.92777 18.7477 1.83518 18.8403C1.7426 18.9329 1.67044 19.0438 1.62328 19.166C1.57613 19.2881 1.55505 19.4188 1.56141 19.5496V26.3997C1.55924 26.6109 1.62573 26.817 1.75089 26.9871C1.87604 27.1572 2.05308 27.282 2.25532 27.3427L15.3018 30.7678C15.6889 30.867 16.0856 30.9236 16.485 30.9368H16.654C17.4102 30.9368 18.5089 30.8568 19.2784 30.1762C20.217 29.509 24.3626 27.0269 26.8403 25.5457C28.7441 24.407 28.8908 24.318 28.8997 24.3047C29.8739 23.6641 30.8302 22.3475 30.2742 20.7906Z" fill="white"/>
<path d="M4.4217 6.56543H2.45117V9.68803H4.4217V6.56543Z" fill="white"/>
<path d="M26.6047 0.0264467H5.39591C4.6201 0.0217491 3.87313 0.320219 3.31418 0.858251C3.04846 1.10846 2.83557 1.40939 2.68811 1.74326C2.54066 2.07712 2.46164 2.43716 2.45569 2.80209V3.29139V5.25302H4.42622V2.80209C4.45412 2.56858 4.5699 2.35446 4.75003 2.20325C4.93015 2.05205 5.16109 1.97511 5.39591 1.98808H26.6047C26.8326 1.99997 27.0506 2.08521 27.2262 2.23111C27.4017 2.377 27.5254 2.57572 27.5788 2.79764V12.9172C27.5499 13.1511 27.4332 13.3652 27.2523 13.5164C27.0715 13.6675 26.84 13.7443 26.6047 13.7312H5.39591C5.2783 13.7428 5.15955 13.7309 5.04661 13.6961C4.93366 13.6613 4.82877 13.6043 4.73808 13.5285C4.64739 13.4528 4.5727 13.3597 4.51839 13.2547C4.46408 13.1497 4.43124 13.035 4.42176 12.9172V11.4315H2.45569V12.9172C2.48803 13.6716 2.81329 14.3836 3.36234 14.9019C3.91139 15.4202 4.64094 15.704 5.39591 15.6928H26.6047C27.3701 15.6932 28.1054 15.395 28.6544 14.8618C29.2035 14.3285 29.5229 13.6022 29.5449 12.8371V2.80209C29.5375 2.42573 29.4552 2.05462 29.3027 1.71044C29.1503 1.36625 28.9308 1.05589 28.6571 0.797483C28.3833 0.539075 28.0609 0.337801 27.7085 0.205417C27.3561 0.0730322 26.9809 0.012191 26.6047 0.0264467Z" fill="white"/>
<path d="M16.0234 14C15.8149 14 15.6387 13.9161 15.4949 13.7482C15.3511 13.5803 15.2792 13.3704 15.2792 13.1186V12.1868L15.6028 12.5268C15.121 12.5016 14.704 12.4302 14.3517 12.3127C13.9994 12.1952 13.7118 12.0776 13.4889 11.9601C13.302 11.8594 13.169 11.7167 13.0899 11.532C13.018 11.3473 12.9892 11.1584 13.0036 10.9654C13.0252 10.7723 13.0863 10.596 13.1869 10.4365C13.2876 10.277 13.417 10.1721 13.5752 10.1217C13.7406 10.063 13.9311 10.0881 14.1468 10.1973C14.2906 10.2896 14.5063 10.3861 14.7939 10.4869C15.0887 10.5792 15.4518 10.6254 15.8832 10.6254C16.1851 10.6254 16.4224 10.5918 16.595 10.5247C16.7747 10.4575 16.9005 10.3694 16.9724 10.2602C17.0515 10.1427 17.0911 10.0168 17.0911 9.88248C17.0911 9.75656 17.0623 9.65163 17.0048 9.56768C16.9545 9.47534 16.8682 9.39559 16.746 9.32844C16.6237 9.25288 16.4548 9.18573 16.2391 9.12697L15.0204 8.82476C14.3517 8.64848 13.852 8.35467 13.5213 7.94334C13.1977 7.52361 13.0359 6.98216 13.0359 6.31899C13.0359 5.81532 13.1402 5.36621 13.3487 4.97167C13.5644 4.56873 13.8628 4.24134 14.2439 3.98951C14.6321 3.73767 15.0851 3.57817 15.6028 3.51102L15.2792 3.72508V2.88143C15.2792 2.62959 15.3511 2.41973 15.4949 2.25184C15.6387 2.08395 15.8149 2 16.0234 2C16.2391 2 16.4188 2.08395 16.5626 2.25184C16.7064 2.41973 16.7783 2.62959 16.7783 2.88143V3.72508L16.4548 3.48583C16.728 3.49423 17.0228 3.54879 17.3391 3.64953C17.6555 3.74187 17.9323 3.87198 18.1696 4.03987C18.3349 4.14061 18.45 4.27912 18.5147 4.4554C18.5866 4.63169 18.6117 4.81217 18.5902 4.99685C18.5758 5.17314 18.5183 5.33263 18.4176 5.47534C18.3241 5.61805 18.1947 5.71459 18.0294 5.76495C17.8712 5.80693 17.6806 5.77335 17.4578 5.66422C17.2924 5.58027 17.1055 5.51312 16.8969 5.46275C16.6956 5.40399 16.4368 5.37461 16.1204 5.37461C15.7394 5.37461 15.4446 5.45435 15.2361 5.61385C15.0348 5.77335 14.9341 5.97901 14.9341 6.23085C14.9341 6.39874 14.9916 6.54145 15.1067 6.65897C15.2289 6.7681 15.4482 6.86464 15.7645 6.94858L16.994 7.26338C17.6771 7.43966 18.1803 7.73347 18.5039 8.14481C18.8346 8.54774 19 9.0724 19 9.71878C19 10.2225 18.8957 10.6674 18.6872 11.0535C18.4787 11.4397 18.1875 11.7545 17.8137 11.9979C17.447 12.2413 17.0192 12.4008 16.5303 12.4764L16.7783 12.1742V13.1186C16.7783 13.3704 16.7064 13.5803 16.5626 13.7482C16.426 13.9161 16.2463 14 16.0234 14Z" fill="white"/>
</svg>
