<svg width="68" height="34" viewBox="0 0 68 34" fill="none" xmlns="http://www.w3.org/2000/svg">
<path d="M28.1789 0.0942383L22.5383 5.72679L16.9058 11.3673L22.5383 16.9999L28.1789 11.3673L33.8114 5.72679L39.444 0.0942383H28.1789Z" fill="url(#paint0_linear_1676_4359)"/>
<path d="M11.2731 17L5.63255 22.6326L0 28.2731L5.63255 33.9057L11.2731 28.2731L16.9057 22.6326L11.2731 17Z" fill="url(#paint1_linear_1676_4359)"/>
<path d="M45.0846 5.72679L39.4441 0.0942383L33.8115 5.72679L39.4441 11.3673L45.0846 16.9999L50.7172 11.3673L45.0846 5.72679Z" fill="url(#paint2_linear_1676_4359)"/>
<path d="M45.0844 17L39.4438 22.6326L33.8113 28.2731L28.1787 33.9057H39.4438L45.0844 28.2731L50.7169 22.6326L45.0844 17Z" fill="url(#paint3_linear_1676_4359)"/>
<path d="M61.9904 22.6326L56.3498 17L50.7173 22.6326L56.3498 28.2731L61.9904 33.9057L67.6229 28.2731L61.9904 22.6326Z" fill="url(#paint4_linear_1676_4359)"/>
<path d="M28.1789 22.6326L22.5383 17L16.9058 22.6326L22.5383 28.2731L28.1789 33.9057L33.8114 28.2731L28.1789 22.6326Z" fill="url(#paint5_linear_1676_4359)"/>
<defs>
<linearGradient id="paint0_linear_1676_4359" x1="16.9058" y1="8.55107" x2="39.444" y2="8.55107" gradientUnits="userSpaceOnUse">
<stop stop-color="#66F398"/>
<stop offset="1" stop-color="#3AB54A"/>
</linearGradient>
<linearGradient id="paint1_linear_1676_4359" x1="0" y1="25.4568" x2="16.9057" y2="25.4568" gradientUnits="userSpaceOnUse">
<stop stop-color="#66F398"/>
<stop offset="1" stop-color="#3AB54A"/>
</linearGradient>
<linearGradient id="paint2_linear_1676_4359" x1="38.0359" y1="4.31865" x2="48.0609" y2="14.3436" gradientUnits="userSpaceOnUse">
<stop stop-color="#006433"/>
<stop offset="0.3" stop-color="#3BB74D"/>
<stop offset="1" stop-color="#66F398"/>
</linearGradient>
<linearGradient id="paint3_linear_1676_4359" x1="28.1787" y1="25.4568" x2="50.7169" y2="25.4568" gradientUnits="userSpaceOnUse">
<stop stop-color="#3AB54A"/>
<stop offset="1" stop-color="#66F398"/>
</linearGradient>
<linearGradient id="paint4_linear_1676_4359" x1="50.7173" y1="25.4568" x2="67.6229" y2="25.4568" gradientUnits="userSpaceOnUse">
<stop stop-color="#66F398"/>
<stop offset="0.7" stop-color="#3BB74D"/>
<stop offset="1" stop-color="#006433"/>
</linearGradient>
<linearGradient id="paint5_linear_1676_4359" x1="20.3381" y1="19.9843" x2="30.7951" y2="31.3774" gradientUnits="userSpaceOnUse">
<stop stop-color="#66F398"/>
<stop offset="0.7" stop-color="#3BB74D"/>
<stop offset="1" stop-color="#006433"/>
</linearGradient>
</defs>
</svg>
