<svg width="40" height="40" viewBox="0 0 40 40" fill="none" xmlns="http://www.w3.org/2000/svg">
<path d="M39.6559 12.9229C38.5437 9.99781 33.3386 10.2481 29.1401 10.9765H29.0789L28.9288 10.8541C26.5076 8.82277 23.4418 7.72068 20.2815 7.74559C17.0427 7.71855 13.9025 8.85856 11.4353 10.9571C8.9682 13.0555 7.33912 15.9722 6.84618 19.1734V19.3847L6.79059 19.418C3.88777 21.1864 -0.805713 24.6064 0.334285 27.6705C0.957113 29.2943 2.93683 30.1229 6.22336 30.1229C7.43808 30.117 8.6511 30.0316 9.85465 29.8671L10.116 29.8226L10.1716 29.8782C11.9931 31.9246 14.3887 33.3748 17.0463 34.0399C19.7039 34.7051 22.5002 34.5543 25.0709 33.6072C27.6415 32.6601 29.8672 30.9606 31.458 28.7302C33.0488 26.4998 33.9309 23.842 33.9892 21.103V20.8639L34.0448 20.8194C37.3536 18.367 40.629 15.5087 39.6559 12.9229ZM8.21973 27.6872C7.48084 27.7659 6.7384 27.8067 5.99534 27.8095C4.03232 27.8095 2.65879 27.487 2.51421 26.9142C2.36962 26.3414 3.23156 24.6899 6.56814 22.3098L6.76276 22.1708V22.4098C6.95024 24.1852 7.47496 25.9084 8.30872 27.487L8.40881 27.6705L8.21973 27.6872ZM10.839 27.3702L10.7889 27.2924C9.60295 25.4714 8.96414 23.3484 8.94824 21.1753C8.98637 18.2048 10.2008 15.3706 12.3252 13.2941C14.4497 11.2176 17.3109 10.0682 20.2815 10.0979C22.9689 10.0993 25.5699 11.0478 27.6273 12.7768C29.6847 14.5057 31.0671 16.9045 31.5313 19.5515V19.7128H31.37C31.3582 19.7358 31.3408 19.7554 31.3194 19.7699C31.298 19.7845 31.2734 19.7936 31.2477 19.7962C28.1355 21.6022 24.8718 23.1335 21.4938 24.3729C18.0654 25.6709 14.5299 26.6664 10.9279 27.348L10.839 27.3702ZM31.5702 22.6323C31.2731 24.6294 30.4462 26.5105 29.1757 28.0798C27.9051 29.649 26.2373 30.8492 24.3457 31.5554C22.4541 32.2617 20.4079 32.4481 18.4198 32.0954C16.4317 31.7428 14.5744 30.8639 13.0411 29.5501L12.8354 29.3722L13.1023 29.311C19.4719 27.8811 25.6161 25.5873 31.3645 22.4933L31.6092 22.3598L31.5702 22.6323ZM33.7613 18.1835L33.5944 18.3058L33.5444 18.1057C33.0799 16.3059 32.253 14.6199 31.1142 13.1508L31.3645 13.0062C35.5408 12.5057 37.3481 13.1953 37.5427 13.7848C37.7373 14.3742 36.9088 15.8646 33.7613 18.178V18.1835Z" fill="white"/>
<path d="M15.4928 20.0972C16.3896 20.0972 17.1166 19.3702 17.1166 18.4734C17.1166 17.5766 16.3896 16.8496 15.4928 16.8496C14.596 16.8496 13.869 17.5766 13.869 18.4734C13.869 19.3702 14.596 20.0972 15.4928 20.0972Z" fill="white"/>
</svg>
