<svg width="32" height="32" viewBox="0 0 32 32" fill="none" xmlns="http://www.w3.org/2000/svg">
<path d="M28.736 1.29428C24.3993 -0.105907 19.732 -0.105907 15.3953 1.29428C13.2785 2.07694 12.1134 3.25538 12.1134 4.6028V10.3038C11.2907 10.2326 10.5926 10.2015 9.93444 10.2015C7.66701 10.1629 5.41008 10.518 3.26404 11.251C1.16065 12.0558 0 13.2387 0 14.5773V27.3399C0 28.674 1.16065 29.8614 3.26404 30.6485C7.6009 32.0477 12.268 32.0477 16.6048 30.6485C18.3347 29.9903 19.4197 29.0965 19.7577 28.0515C20.5188 28.1252 21.2832 28.1609 22.0479 28.1582C24.3153 28.1976 26.5724 27.8424 28.7183 27.1087C30.8261 26.3216 31.9868 25.1432 31.9868 23.7957V4.58501C32.0179 3.25538 30.8439 2.08139 28.736 1.29428ZM19.8733 23.3377C20.5493 23.4044 21.2652 23.4355 22.0523 23.4355C24.3195 23.4764 26.5766 23.1227 28.7227 22.3905C29.164 22.2279 29.5921 22.0316 30.0034 21.8035V23.8269C30.0034 24.6584 26.984 26.1837 22.0568 26.1837C21.3292 26.1863 20.6019 26.1521 19.8778 26.0815L19.8733 23.3377ZM22.0523 21.4344C21.3247 21.4369 20.5975 21.4028 19.8733 21.3321V18.5928C20.5493 18.6595 21.2652 18.6907 22.0523 18.6907C24.3198 18.73 26.5769 18.3749 28.7227 17.6412C29.1655 17.4823 29.594 17.2859 30.0034 17.0542V19.0642C29.999 19.9002 26.9795 21.4389 22.0523 21.4389V21.4344ZM22.0523 16.6984C21.3248 16.7023 20.5976 16.6697 19.8733 16.6006V14.5773C19.8725 14.3308 19.832 14.086 19.7533 13.8524C20.5448 13.9236 21.3008 13.9591 22.0523 13.9591C24.3198 13.9985 26.5769 13.6434 28.7227 12.9097C29.164 12.747 29.5921 12.5508 30.0034 12.3227V14.3327C29.999 15.1376 27.193 16.7029 22.0523 16.7029V16.6984ZM29.999 7.32876V9.58336C29.999 10.3883 27.193 11.9536 22.0523 11.9536C17.1207 11.9536 14.1057 10.4194 14.1057 9.58336V7.32876C14.5154 7.55687 14.9421 7.75311 15.3819 7.91576C17.5283 8.64711 19.7852 9.0007 22.0523 8.96079C24.3195 9.0016 26.5766 8.64799 28.7227 7.91576C29.1625 7.75289 29.5891 7.55665 29.999 7.32876ZM22.0523 6.97746C17.1207 6.97746 14.1057 5.43882 14.1057 4.6028C14.1057 3.76677 17.1207 2.2148 22.0523 2.2148C26.984 2.2148 29.999 3.74899 29.999 4.58501C29.999 5.42103 26.9795 6.97746 22.0523 6.97746ZM17.8855 25.9258V27.3755C17.8855 28.2115 14.8661 29.7457 9.93889 29.7457C5.01169 29.7457 1.99223 28.2293 1.99223 27.3755V25.9258C2.40197 26.1539 2.82865 26.3502 3.2685 26.5128C7.60535 27.9121 12.2724 27.9121 16.6093 26.5128C17.0488 26.3493 17.4754 26.1531 17.8855 25.9258ZM9.93889 25.5612C5.01169 25.5612 1.99223 24.0225 1.99223 23.1865V21.7546C2.40197 21.9827 2.82865 22.179 3.2685 22.3416C7.60535 23.7409 12.2724 23.7409 16.6093 22.3416C17.0491 22.179 17.4758 21.9827 17.8855 21.7546V23.1999C17.8855 24.0047 15.0795 25.5612 9.93889 25.5612ZM9.93889 21.39C5.01169 21.39 1.99223 19.8513 1.99223 19.0153V17.3032C2.40197 17.5313 2.82865 17.7276 3.2685 17.8902C7.60605 19.285 12.2717 19.285 16.6093 17.8902C17.0491 17.7276 17.4758 17.5313 17.8855 17.3032V19.0286C17.8855 19.8335 15.0795 21.4033 9.93889 21.4033V21.39ZM9.93889 16.943C5.01169 16.943 1.99223 15.4088 1.99223 14.5728C1.99223 13.7368 5.01169 12.1848 9.93889 12.1848C10.9387 12.1779 11.9377 12.2463 12.9272 12.3894C12.9551 12.3952 12.9839 12.3952 13.0117 12.3894C16.1913 12.8341 17.9033 13.9413 17.9033 14.555C17.8856 15.3822 15.0795 16.9475 9.93889 16.9475V16.943Z" fill="white"/>
</svg>
